<mxfile host="Electron" agent="Mozilla/5.0 (Windows NT 10.0; Win64; x64) AppleWebKit/537.36 (KHTML, like Gecko) draw.io/26.0.16 Chrome/132.0.6834.196 Electron/34.2.0 Safari/537.36" version="26.0.16">
  <diagram id="C5RBs43oDa-KdzZeNtuy" name="Page-1">
    <mxGraphModel dx="890" dy="461" grid="1" gridSize="10" guides="1" tooltips="1" connect="1" arrows="1" fold="1" page="1" pageScale="1" pageWidth="827" pageHeight="1169" math="0" shadow="0">
      <root>
        <mxCell id="WIyWlLk6GJQsqaUBKTNV-0" />
        <mxCell id="WIyWlLk6GJQsqaUBKTNV-1" parent="WIyWlLk6GJQsqaUBKTNV-0" />
        <mxCell id="nrCMCk6xZg3VfQ6Ma4k3-0" value="«interface»&lt;br&gt;&lt;b&gt;BankAccount&lt;/b&gt;" style="html=1;whiteSpace=wrap;" parent="WIyWlLk6GJQsqaUBKTNV-1" vertex="1">
          <mxGeometry x="432" y="30" width="110" height="50" as="geometry" />
        </mxCell>
        <mxCell id="nrCMCk6xZg3VfQ6Ma4k3-5" value="CoreBankAccount" style="swimlane;fontStyle=1;align=center;verticalAlign=top;childLayout=stackLayout;horizontal=1;startSize=30;horizontalStack=0;resizeParent=1;resizeParentMax=0;resizeLast=0;collapsible=1;marginBottom=0;whiteSpace=wrap;html=1;" parent="WIyWlLk6GJQsqaUBKTNV-1" vertex="1">
          <mxGeometry x="563" y="160" width="160" height="84" as="geometry" />
        </mxCell>
        <mxCell id="nrCMCk6xZg3VfQ6Ma4k3-7" value="" style="line;strokeWidth=1;fillColor=none;align=left;verticalAlign=middle;spacingTop=-1;spacingLeft=3;spacingRight=3;rotatable=0;labelPosition=right;points=[];portConstraint=eastwest;strokeColor=inherit;" parent="nrCMCk6xZg3VfQ6Ma4k3-5" vertex="1">
          <mxGeometry y="30" width="160" height="8" as="geometry" />
        </mxCell>
        <mxCell id="nrCMCk6xZg3VfQ6Ma4k3-8" value="+ deposit(int): void&lt;div&gt;+ withdraw(int): void&lt;/div&gt;" style="text;strokeColor=none;fillColor=none;align=left;verticalAlign=top;spacingLeft=4;spacingRight=4;overflow=hidden;rotatable=0;points=[[0,0.5],[1,0.5]];portConstraint=eastwest;whiteSpace=wrap;html=1;" parent="nrCMCk6xZg3VfQ6Ma4k3-5" vertex="1">
          <mxGeometry y="38" width="160" height="46" as="geometry" />
        </mxCell>
        <mxCell id="nrCMCk6xZg3VfQ6Ma4k3-11" value="&lt;i&gt;AbstractBankAccount&lt;/i&gt;" style="swimlane;fontStyle=1;align=center;verticalAlign=top;childLayout=stackLayout;horizontal=1;startSize=30;horizontalStack=0;resizeParent=1;resizeParentMax=0;resizeLast=0;collapsible=1;marginBottom=0;whiteSpace=wrap;html=1;" parent="WIyWlLk6GJQsqaUBKTNV-1" vertex="1">
          <mxGeometry x="217" y="160" width="160" height="140" as="geometry">
            <mxRectangle x="144" y="160" width="160" height="30" as="alternateBounds" />
          </mxGeometry>
        </mxCell>
        <mxCell id="nrCMCk6xZg3VfQ6Ma4k3-12" value="" style="line;strokeWidth=1;fillColor=none;align=left;verticalAlign=middle;spacingTop=-1;spacingLeft=3;spacingRight=3;rotatable=0;labelPosition=right;points=[];portConstraint=eastwest;strokeColor=inherit;" parent="nrCMCk6xZg3VfQ6Ma4k3-11" vertex="1">
          <mxGeometry y="30" width="160" height="60" as="geometry" />
        </mxCell>
        <mxCell id="HSJuQ1FkC52HCSMR2ekH-0" value="&lt;i&gt;# getFee(int): int&lt;/i&gt;&lt;div&gt;&lt;i&gt;# canWithdraw(int): int&lt;/i&gt;&lt;/div&gt;&lt;div&gt;&lt;br&gt;&lt;/div&gt;" style="text;strokeColor=none;fillColor=none;align=left;verticalAlign=top;spacingLeft=4;spacingRight=4;overflow=hidden;rotatable=0;points=[[0,0.5],[1,0.5]];portConstraint=eastwest;whiteSpace=wrap;html=1;" vertex="1" parent="nrCMCk6xZg3VfQ6Ma4k3-11">
          <mxGeometry y="90" width="160" height="50" as="geometry" />
        </mxCell>
        <mxCell id="nrCMCk6xZg3VfQ6Ma4k3-16" value="+ base: BankAccount" style="text;html=1;align=left;verticalAlign=middle;resizable=0;points=[];autosize=1;strokeColor=none;fillColor=none;" parent="WIyWlLk6GJQsqaUBKTNV-1" vertex="1">
          <mxGeometry x="223" y="188" width="140" height="30" as="geometry" />
        </mxCell>
        <mxCell id="nrCMCk6xZg3VfQ6Ma4k3-17" value="SilverBankAccount&lt;div&gt;&lt;br&gt;&lt;/div&gt;" style="swimlane;fontStyle=1;align=center;verticalAlign=top;childLayout=stackLayout;horizontal=1;startSize=26;horizontalStack=0;resizeParent=1;resizeParentMax=0;resizeLast=0;collapsible=1;marginBottom=0;whiteSpace=wrap;html=1;" parent="WIyWlLk6GJQsqaUBKTNV-1" vertex="1">
          <mxGeometry x="20" y="391" width="160" height="90" as="geometry" />
        </mxCell>
        <mxCell id="nrCMCk6xZg3VfQ6Ma4k3-19" value="" style="line;strokeWidth=1;fillColor=none;align=left;verticalAlign=middle;spacingTop=-1;spacingLeft=3;spacingRight=3;rotatable=0;labelPosition=right;points=[];portConstraint=eastwest;strokeColor=inherit;" parent="nrCMCk6xZg3VfQ6Ma4k3-17" vertex="1">
          <mxGeometry y="26" width="160" height="8" as="geometry" />
        </mxCell>
        <mxCell id="nrCMCk6xZg3VfQ6Ma4k3-20" value="+ getFee(int): int&lt;div&gt;+ canWithdraw(int): int&lt;/div&gt;&lt;div&gt;&lt;br&gt;&lt;/div&gt;" style="text;strokeColor=none;fillColor=none;align=left;verticalAlign=top;spacingLeft=4;spacingRight=4;overflow=hidden;rotatable=0;points=[[0,0.5],[1,0.5]];portConstraint=eastwest;whiteSpace=wrap;html=1;" parent="nrCMCk6xZg3VfQ6Ma4k3-17" vertex="1">
          <mxGeometry y="34" width="160" height="56" as="geometry" />
        </mxCell>
        <mxCell id="nrCMCk6xZg3VfQ6Ma4k3-21" value="" style="endArrow=block;dashed=1;endFill=0;endSize=12;html=1;rounded=0;entryX=0.5;entryY=1;entryDx=0;entryDy=0;" parent="WIyWlLk6GJQsqaUBKTNV-1" target="nrCMCk6xZg3VfQ6Ma4k3-0" edge="1">
          <mxGeometry width="160" relative="1" as="geometry">
            <mxPoint x="563" y="160" as="sourcePoint" />
            <mxPoint x="723" y="160" as="targetPoint" />
          </mxGeometry>
        </mxCell>
        <mxCell id="nrCMCk6xZg3VfQ6Ma4k3-25" value="" style="endArrow=block;dashed=1;endFill=0;endSize=12;html=1;rounded=0;entryX=0.5;entryY=1;entryDx=0;entryDy=0;exitX=1;exitY=0;exitDx=0;exitDy=0;" parent="WIyWlLk6GJQsqaUBKTNV-1" source="nrCMCk6xZg3VfQ6Ma4k3-11" target="nrCMCk6xZg3VfQ6Ma4k3-0" edge="1">
          <mxGeometry width="160" relative="1" as="geometry">
            <mxPoint x="563" y="160" as="sourcePoint" />
            <mxPoint x="723" y="160" as="targetPoint" />
          </mxGeometry>
        </mxCell>
        <mxCell id="nrCMCk6xZg3VfQ6Ma4k3-27" value="Extends" style="endArrow=block;endSize=16;endFill=0;html=1;rounded=0;exitX=0.5;exitY=0;exitDx=0;exitDy=0;" parent="WIyWlLk6GJQsqaUBKTNV-1" source="nrCMCk6xZg3VfQ6Ma4k3-17" edge="1">
          <mxGeometry width="160" relative="1" as="geometry">
            <mxPoint x="490" y="231" as="sourcePoint" />
            <mxPoint x="290" y="300" as="targetPoint" />
          </mxGeometry>
        </mxCell>
        <mxCell id="nrCMCk6xZg3VfQ6Ma4k3-28" value="1" style="endArrow=open;html=1;endSize=12;startArrow=diamondThin;startSize=14;startFill=1;edgeStyle=orthogonalEdgeStyle;align=left;verticalAlign=bottom;rounded=0;entryX=0.149;entryY=0.96;entryDx=0;entryDy=0;entryPerimeter=0;exitX=0.75;exitY=0;exitDx=0;exitDy=0;" parent="WIyWlLk6GJQsqaUBKTNV-1" source="nrCMCk6xZg3VfQ6Ma4k3-11" target="nrCMCk6xZg3VfQ6Ma4k3-0" edge="1">
          <mxGeometry x="-0.8222" y="14" relative="1" as="geometry">
            <mxPoint x="563" y="160" as="sourcePoint" />
            <mxPoint x="723" y="160" as="targetPoint" />
            <Array as="points">
              <mxPoint x="337" y="100" />
              <mxPoint x="448" y="100" />
            </Array>
            <mxPoint as="offset" />
          </mxGeometry>
        </mxCell>
        <mxCell id="nrCMCk6xZg3VfQ6Ma4k3-29" value="GoldBankAccount&lt;div&gt;&lt;br&gt;&lt;/div&gt;" style="swimlane;fontStyle=1;align=center;verticalAlign=top;childLayout=stackLayout;horizontal=1;startSize=26;horizontalStack=0;resizeParent=1;resizeParentMax=0;resizeLast=0;collapsible=1;marginBottom=0;whiteSpace=wrap;html=1;" parent="WIyWlLk6GJQsqaUBKTNV-1" vertex="1">
          <mxGeometry x="199" y="391" width="160" height="90" as="geometry" />
        </mxCell>
        <mxCell id="nrCMCk6xZg3VfQ6Ma4k3-30" value="" style="line;strokeWidth=1;fillColor=none;align=left;verticalAlign=middle;spacingTop=-1;spacingLeft=3;spacingRight=3;rotatable=0;labelPosition=right;points=[];portConstraint=eastwest;strokeColor=inherit;" parent="nrCMCk6xZg3VfQ6Ma4k3-29" vertex="1">
          <mxGeometry y="26" width="160" height="8" as="geometry" />
        </mxCell>
        <mxCell id="nrCMCk6xZg3VfQ6Ma4k3-31" value="+ getFee(int): int&lt;div&gt;+ canWithdraw(int): int&lt;/div&gt;&lt;div&gt;&lt;br&gt;&lt;/div&gt;" style="text;strokeColor=none;fillColor=none;align=left;verticalAlign=top;spacingLeft=4;spacingRight=4;overflow=hidden;rotatable=0;points=[[0,0.5],[1,0.5]];portConstraint=eastwest;whiteSpace=wrap;html=1;" parent="nrCMCk6xZg3VfQ6Ma4k3-29" vertex="1">
          <mxGeometry y="34" width="160" height="56" as="geometry" />
        </mxCell>
        <mxCell id="nrCMCk6xZg3VfQ6Ma4k3-32" value="Extends" style="endArrow=block;endSize=16;endFill=0;html=1;rounded=0;exitX=0.5;exitY=0;exitDx=0;exitDy=0;entryX=0.436;entryY=0.988;entryDx=0;entryDy=0;entryPerimeter=0;" parent="WIyWlLk6GJQsqaUBKTNV-1" source="nrCMCk6xZg3VfQ6Ma4k3-29" edge="1" target="HSJuQ1FkC52HCSMR2ekH-0">
          <mxGeometry x="0.0065" width="160" relative="1" as="geometry">
            <mxPoint x="700" y="170" as="sourcePoint" />
            <mxPoint x="290" y="310" as="targetPoint" />
            <mxPoint as="offset" />
          </mxGeometry>
        </mxCell>
        <mxCell id="nrCMCk6xZg3VfQ6Ma4k3-33" value="BronzeBankAccount&lt;div&gt;&lt;br&gt;&lt;/div&gt;" style="swimlane;fontStyle=1;align=center;verticalAlign=top;childLayout=stackLayout;horizontal=1;startSize=26;horizontalStack=0;resizeParent=1;resizeParentMax=0;resizeLast=0;collapsible=1;marginBottom=0;whiteSpace=wrap;html=1;" parent="WIyWlLk6GJQsqaUBKTNV-1" vertex="1">
          <mxGeometry x="414" y="391" width="160" height="90" as="geometry" />
        </mxCell>
        <mxCell id="nrCMCk6xZg3VfQ6Ma4k3-34" value="" style="line;strokeWidth=1;fillColor=none;align=left;verticalAlign=middle;spacingTop=-1;spacingLeft=3;spacingRight=3;rotatable=0;labelPosition=right;points=[];portConstraint=eastwest;strokeColor=inherit;" parent="nrCMCk6xZg3VfQ6Ma4k3-33" vertex="1">
          <mxGeometry y="26" width="160" height="8" as="geometry" />
        </mxCell>
        <mxCell id="nrCMCk6xZg3VfQ6Ma4k3-35" value="+ getFee(int): int&lt;div&gt;+ canWithdraw(int): int&lt;/div&gt;&lt;div&gt;&lt;br&gt;&lt;/div&gt;" style="text;strokeColor=none;fillColor=none;align=left;verticalAlign=top;spacingLeft=4;spacingRight=4;overflow=hidden;rotatable=0;points=[[0,0.5],[1,0.5]];portConstraint=eastwest;whiteSpace=wrap;html=1;" parent="nrCMCk6xZg3VfQ6Ma4k3-33" vertex="1">
          <mxGeometry y="34" width="160" height="56" as="geometry" />
        </mxCell>
        <mxCell id="nrCMCk6xZg3VfQ6Ma4k3-36" value="Extends" style="endArrow=block;endSize=16;endFill=0;html=1;rounded=0;exitX=0.5;exitY=0;exitDx=0;exitDy=0;entryX=0.474;entryY=1.021;entryDx=0;entryDy=0;entryPerimeter=0;" parent="WIyWlLk6GJQsqaUBKTNV-1" source="nrCMCk6xZg3VfQ6Ma4k3-33" target="HSJuQ1FkC52HCSMR2ekH-0" edge="1">
          <mxGeometry width="160" relative="1" as="geometry">
            <mxPoint x="900" y="251" as="sourcePoint" />
            <mxPoint x="297" y="376.9999999999999" as="targetPoint" />
          </mxGeometry>
        </mxCell>
      </root>
    </mxGraphModel>
  </diagram>
</mxfile>
